g cam_tripod
v -0.02604805 0.0505766 0.2437105
v -0.02053271 0.0583401 0.2345054
v -0.02053271 0.0583401 0.2437105
v -0.02604805 0.0505766 0.2345054
v -1.274522E-10 -0.01001107 0.2437105
v -0.02051626 -0.00434142 0.2345054
v -0.02051626 -0.00434142 0.2437105
v -1.274522E-10 -0.01001107 0.2345054
v -1.274522E-10 0.0505766 0.2437105
v -0.02053271 0.0583401 0.2437105
v -1.274522E-10 0.06535667 0.2437105
v -0.02604805 0.0505766 0.2437105
v 0.02053271 0.0583401 0.2437105
v 0.02604805 0.0505766 0.2437105
v -1.274522E-10 0.01049171 0.2437105
v -0.02604805 0.0505766 0.2437105
v -1.274522E-10 0.0505766 0.2437105
v -0.02468277 0.01049171 0.2437105
v -1.274522E-10 -0.01001107 0.2437105
v -0.02051626 -0.00434142 0.2437105
v 0.02604805 0.0505766 0.2437105
v 0.02468277 0.01049171 0.2437105
v 0.02051626 -0.00434142 0.2437105
v -0.02468277 0.01049171 0.2437105
v -0.02604805 0.0505766 0.2345054
v -0.02604805 0.0505766 0.2437105
v -0.02468277 0.01049171 0.2345054
v -0.02051626 -0.00434142 0.2437105
v -0.02468277 0.01049171 0.2345054
v -0.02468277 0.01049171 0.2437105
v -0.02051626 -0.00434142 0.2345054
v -0.02051626 -0.00434142 0.2345054
v -1.274522E-10 0.01049171 0.2345054
v -0.02468277 0.01049171 0.2345054
v -1.274522E-10 -0.01001107 0.2345054
v -1.274522E-10 0.0505766 0.2345054
v -0.02604805 0.0505766 0.2345054
v -1.274522E-10 0.06535667 0.2345054
v -0.02053271 0.0583401 0.2345054
v 0.02051626 -0.00434142 0.2345054
v 0.02468277 0.01049171 0.2345054
v 0.02604805 0.0505766 0.2345054
v -0.02053271 0.0583401 0.2437105
v -1.274522E-10 0.06535667 0.2345054
v -1.274522E-10 0.06535667 0.2437105
v -0.02053271 0.0583401 0.2345054
v -0.05482961 0.07348757 0.03580418
v -0.06584056 0.09298959 -0.0007339353
v -0.0548296 0.08269589 0.0358042
v -0.06584056 0.08178047 -0.0007339353
v -0.0548296 0.08269589 0.0358042
v -0.05872851 0.09298959 -0.0007339353
v -0.0485769 0.08269589 0.0358042
v -0.06584056 0.09298959 -0.0007339353
v -0.0485769 0.08269589 0.0358042
v -0.05872851 0.08178047 -0.0007339353
v -0.0485769 0.07348757 0.03580419
v -0.05872851 0.09298959 -0.0007339353
v -0.0485769 0.07348757 0.03580419
v -0.06584056 0.08178047 -0.0007339353
v -0.05482961 0.07348757 0.03580418
v -0.05872851 0.08178047 -0.0007339353
v -0.006336893 0.03033022 0.2393952
v -0.05482961 0.07348757 0.03580418
v -0.01270549 0.03033022 0.2393952
v -0.0485769 0.07348757 0.03580419
v -0.006336893 0.0366988 0.2393952
v -0.0485769 0.07348757 0.03580419
v -0.006336893 0.03033022 0.2393952
v -0.0485769 0.08269589 0.0358042
v -0.01270549 0.0366988 0.2393952
v -0.0485769 0.08269589 0.0358042
v -0.006336893 0.0366988 0.2393952
v -0.0548296 0.08269589 0.0358042
v -0.01270549 0.03033022 0.2393952
v -0.0548296 0.08269589 0.0358042
v -0.01270549 0.0366988 0.2393952
v -0.05482961 0.07348757 0.03580418
v 0.02604805 0.0505766 0.2437105
v 0.02053271 0.0583401 0.2345054
v 0.02604805 0.0505766 0.2345054
v 0.02053271 0.0583401 0.2437105
v -1.274522E-10 -0.01001107 0.2437105
v 0.02051626 -0.00434142 0.2345054
v -1.274522E-10 -0.01001107 0.2345054
v 0.02051626 -0.00434142 0.2437105
v 0.02468277 0.01049171 0.2437105
v 0.02604805 0.0505766 0.2345054
v 0.02468277 0.01049171 0.2345054
v 0.02604805 0.0505766 0.2437105
v 0.02051626 -0.00434142 0.2437105
v 0.02468277 0.01049171 0.2345054
v 0.02051626 -0.00434142 0.2345054
v 0.02468277 0.01049171 0.2437105
v 0.02604805 0.0505766 0.2345054
v -1.274522E-10 0.06535667 0.2345054
v -1.274522E-10 0.0505766 0.2345054
v 0.02053271 0.0583401 0.2345054
v 0.02053271 0.0583401 0.2437105
v -1.274522E-10 0.06535667 0.2345054
v 0.02053271 0.0583401 0.2345054
v -1.274522E-10 0.06535667 0.2437105
v 0.05482961 0.07348757 0.03580418
v 0.06584056 0.09298959 -0.0007339353
v 0.06584056 0.08178047 -0.0007339353
v 0.0548296 0.08269589 0.0358042
v 0.0548296 0.08269589 0.0358042
v 0.05872851 0.09298959 -0.0007339353
v 0.06584056 0.09298959 -0.0007339353
v 0.0485769 0.08269589 0.0358042
v 0.0485769 0.08269589 0.0358042
v 0.05872851 0.08178047 -0.0007339353
v 0.05872851 0.09298959 -0.0007339353
v 0.0485769 0.07348757 0.03580419
v 0.0485769 0.07348757 0.03580419
v 0.06584056 0.08178047 -0.0007339353
v 0.05872851 0.08178047 -0.0007339353
v 0.05482961 0.07348757 0.03580418
v 0.006336893 0.03033022 0.2393952
v 0.05482961 0.07348757 0.03580418
v 0.0485769 0.07348757 0.03580419
v 0.01270549 0.03033022 0.2393952
v 0.006336893 0.0366988 0.2393952
v 0.0485769 0.07348757 0.03580419
v 0.0485769 0.08269589 0.0358042
v 0.006336893 0.03033022 0.2393952
v 0.01270549 0.0366988 0.2393952
v 0.0485769 0.08269589 0.0358042
v 0.0548296 0.08269589 0.0358042
v 0.006336893 0.0366988 0.2393952
v 0.01270549 0.03033022 0.2393952
v 0.0548296 0.08269589 0.0358042
v 0.05482961 0.07348757 0.03580418
v 0.01270549 0.0366988 0.2393952
v -0.001877597 -0.03808387 0.03888472
v -0.003769852 -0.03882768 -0.0009575999
v -0.001504175 -0.02964155 0.03522673
v -0.003204582 -0.05000981 -0.0008302357
v -0.001504175 -0.02964155 0.03522673
v 0.003300703 -0.03843869 -0.0007998701
v 0.004577833 -0.02929957 0.03663687
v 0.003300703 -0.03843869 -0.0007998701
v -0.001504175 -0.02964155 0.03522673
v -0.003769852 -0.03882768 -0.0009575999
v 0.004577833 -0.02929957 0.03663687
v 0.003865972 -0.04962082 -0.0006725055
v 0.004204415 -0.03774188 0.04029487
v 0.003300703 -0.03843869 -0.0007998701
v 0.004204415 -0.03774188 0.04029487
v -0.003204582 -0.05000981 -0.0008302357
v -0.001877597 -0.03808387 0.03888472
v -0.003204582 -0.05000981 -0.0008302357
v 0.004204415 -0.03774188 0.04029487
v 0.003865972 -0.04962082 -0.0006725055
v 0.00646322 0.01528395 0.2392533
v -0.001877597 -0.03808387 0.03888472
v 9.462237E-05 0.01528395 0.2392533
v 0.004204415 -0.03774188 0.04029487
v 0.00646322 0.02092842 0.2363039
v 0.004204415 -0.03774188 0.04029487
v 0.00646322 0.01528395 0.2392533
v 0.004577833 -0.02929957 0.03663687
v 9.462237E-05 0.02092842 0.2363039
v 0.004577833 -0.02929957 0.03663687
v 0.00646322 0.02092842 0.2363039
v -0.001504175 -0.02964155 0.03522673
v 9.462237E-05 0.01528395 0.2392533
v -0.001504175 -0.02964155 0.03522673
v 9.462237E-05 0.02092842 0.2363039
v -0.001877597 -0.03808387 0.03888472
vt 0.1454435 0.8379149
vt 0.1422831 0.8341677
vt 0.1422831 0.8379149
vt 0.1454435 0.8341677
vt 0.1701081 0.8379149
vt 0.1678 0.8341677
vt 0.1678 0.8379149
vt 0.1701081 0.8341677
vt 0.1454435 0.8379149
vt 0.1422831 0.8379149
vt 0.1394268 0.8379149
vt 0.1454435 0.8379149
vt 0.1422831 0.8379149
vt 0.1454435 0.8379149
vt 0.1617616 0.8379149
vt 0.1454435 0.8379149
vt 0.1454435 0.8379149
vt 0.1617616 0.8379149
vt 0.1701081 0.8379149
vt 0.1678 0.8379149
vt 0.1454435 0.8379149
vt 0.1617616 0.8379149
vt 0.1678 0.8379149
vt 0.1617616 0.8379149
vt 0.1454435 0.8341677
vt 0.1454435 0.8379149
vt 0.1617616 0.8341677
vt 0.1678 0.8379149
vt 0.1617616 0.8341677
vt 0.1617616 0.8379149
vt 0.1678 0.8341677
vt 0.1678 0.8341677
vt 0.1617616 0.8341677
vt 0.1617616 0.8341677
vt 0.1701081 0.8341677
vt 0.1454435 0.8341677
vt 0.1454435 0.8341677
vt 0.1394268 0.8341677
vt 0.1422831 0.8341677
vt 0.1678 0.8341677
vt 0.1617616 0.8341677
vt 0.1454435 0.8341677
vt 0.1422831 0.8379149
vt 0.1394268 0.8341677
vt 0.1394268 0.8379149
vt 0.1422831 0.8341677
vt 0.6785465 0.9136345
vt 0.7024233 0.8344032
vt 0.6785465 0.9136345
vt 0.7024233 0.8344032
vt 0.6785465 0.9136345
vt 0.6870011 0.8344032
vt 0.6649878 0.9136345
vt 0.7024233 0.8344032
vt 0.6649878 0.9136345
vt 0.6870011 0.8344032
vt 0.6649878 0.9136345
vt 0.6870011 0.8344032
vt 0.6649878 0.9136345
vt 0.7024233 0.8344032
vt 0.6785465 0.9136345
vt 0.6870011 0.8344032
vt 0.09701049 0.9170471
vt 0.1167513 0.8341677
vt 0.09960309 0.9170471
vt 0.1142059 0.8341677
vt 0.09701049 0.9170471
vt 0.1142059 0.8341677
vt 0.09701049 0.9170471
vt 0.1142059 0.8341677
vt 0.09960309 0.9170471
vt 0.1142059 0.8341677
vt 0.09701049 0.9170471
vt 0.1167513 0.8341677
vt 0.09960309 0.9170471
vt 0.1167513 0.8341677
vt 0.09960309 0.9170471
vt 0.1167513 0.8341677
vt 0.1454435 0.8379149
vt 0.1422831 0.8341677
vt 0.1454435 0.8341677
vt 0.1422831 0.8379149
vt 0.1701081 0.8379149
vt 0.1678 0.8341677
vt 0.1701081 0.8341677
vt 0.1678 0.8379149
vt 0.1617616 0.8379149
vt 0.1454435 0.8341677
vt 0.1617616 0.8341677
vt 0.1454435 0.8379149
vt 0.1678 0.8379149
vt 0.1617616 0.8341677
vt 0.1678 0.8341677
vt 0.1617616 0.8379149
vt 0.1454435 0.8341677
vt 0.1394268 0.8341677
vt 0.1454435 0.8341677
vt 0.1422831 0.8341677
vt 0.1422831 0.8379149
vt 0.1394268 0.8341677
vt 0.1422831 0.8341677
vt 0.1394268 0.8379149
vt 0.6629546 0.9136345
vt 0.6206654 0.8344032
vt 0.6449719 0.8344032
vt 0.6429868 0.9136345
vt 0.6429868 0.9136345
vt 0.6206654 0.8344032
vt 0.6206654 0.8344032
vt 0.6429868 0.9136345
vt 0.6429868 0.9136345
vt 0.6449719 0.8344032
vt 0.6206654 0.8344032
vt 0.6629546 0.9136345
vt 0.6629546 0.9136345
vt 0.6449719 0.8344032
vt 0.6449719 0.8344032
vt 0.6629546 0.9136345
vt 0.1182186 0.9170471
vt 0.1379594 0.8341677
vt 0.1354141 0.8341677
vt 0.1208112 0.9170471
vt 0.1182186 0.9170471
vt 0.1354141 0.8341677
vt 0.1354141 0.8341677
vt 0.1182186 0.9170471
vt 0.1208112 0.9170471
vt 0.1354141 0.8341677
vt 0.1379594 0.8341677
vt 0.1182186 0.9170471
vt 0.1208112 0.9170471
vt 0.1379594 0.8341677
vt 0.1379594 0.8341677
vt 0.1208112 0.9170471
vt 0.5995839 0.9207995
vt 0.597971 0.8344032
vt 0.6178907 0.9128673
vt 0.5737231 0.8346794
vt 0.6178907 0.9128673
vt 0.5988145 0.8347453
vt 0.6186323 0.9159251
vt 0.5988145 0.8347453
vt 0.6178907 0.9128673
vt 0.597971 0.8344032
vt 0.6186323 0.9159251
vt 0.5745665 0.8350214
vt 0.6003255 0.9238573
vt 0.5988145 0.8347453
vt 0.6003255 0.9238573
vt 0.5737231 0.8346794
vt 0.5995839 0.9207995
vt 0.5737231 0.8346794
vt 0.6003255 0.9238573
vt 0.5745665 0.8350214
vt 0.09324539 0.9172245
vt 0.07151997 0.8356568
vt 0.09324539 0.9172245
vt 0.07165921 0.8362309
vt 0.09554321 0.9160239
vt 0.07165921 0.8362309
vt 0.09324539 0.9172245
vt 0.07509595 0.8347417
vt 0.09554321 0.9160239
vt 0.07509595 0.8347417
vt 0.09554321 0.9160239
vt 0.07495674 0.8341677
vt 0.09324539 0.9172245
vt 0.07495674 0.8341677
vt 0.09554321 0.9160239
vt 0.07151997 0.8356568
vn -0.8152213 0.5791497 0
vn -0.8152213 0.5791497 0
vn -0.8152213 0.5791497 0
vn -0.8152213 0.5791497 0
vn -0.2663649 -0.9638724 0
vn -0.2663649 -0.9638724 0
vn -0.2663649 -0.9638724 0
vn -0.2663649 -0.9638724 0
vn -6.083388E-07 0 1
vn -6.083388E-07 0 1
vn -6.083388E-07 0 1
vn -6.083388E-07 0 1
vn 6.083388E-07 0 1
vn 6.083388E-07 0 1
vn 0 0 1
vn 0 0 1
vn 0 0 1
vn 0 0 1
vn 0 0 1
vn 0 0 1
vn 0 0 1
vn 0 0 1
vn 0 0 1
vn -0.9994205 -0.03403992 0
vn -0.9994205 -0.03403992 0
vn -0.9994205 -0.03403992 0
vn -0.9994205 -0.03403992 0
vn -0.9627407 -0.2704262 0
vn -0.9627407 -0.2704262 0
vn -0.9627407 -0.2704262 0
vn -0.9627407 -0.2704262 0
vn 0 0 -1
vn 0 0 -1
vn 0 0 -1
vn 0 0 -1
vn 0 0 -1
vn 0 0 -1
vn 0 0 -1
vn 0 0 -1
vn 0 0 -1
vn 0 0 -1
vn 0 0 -1
vn -0.3233668 0.9462736 0
vn -0.3233668 0.9462736 0
vn -0.3233668 0.9462736 0
vn -0.3233668 0.9462736 0
vn -0.9574685 3.94834E-07 0.288538
vn -0.9574685 3.94834E-07 0.288538
vn -0.9574685 3.94834E-07 0.288538
vn -0.9574685 3.94834E-07 0.288538
vn 0 0.9625316 0.2711695
vn 0 0.9625316 0.2711695
vn 0 0.9625316 0.2711695
vn 0 0.9625316 0.2711695
vn 0.9635035 0 -0.2676959
vn 0.9635035 0 -0.2676959
vn 0.9635035 0 -0.2676959
vn 0.9635035 0 -0.2676959
vn 0 -0.9751975 -0.2213366
vn 0 -0.9751975 -0.2213366
vn 0 -0.9751975 -0.2213366
vn 0 -0.9751975 -0.2213366
vn 0 -0.9782619 -0.2073728
vn 0 -0.9782619 -0.2073728
vn 0 -0.9782619 -0.2073728
vn 0 -0.9782619 -0.2073728
vn 0.9791479 0 -0.2031485
vn 0.9791479 0 -0.2031485
vn 0.9791479 0 -0.2031485
vn 0.9791479 0 -0.2031485
vn 0 0.9754152 0.2203746
vn 0 0.9754152 0.2203746
vn 0 0.9754152 0.2203746
vn 0 0.9754152 0.2203746
vn -0.9792587 5.247518E-07 0.2026141
vn -0.9792587 5.247518E-07 0.2026141
vn -0.9792587 5.247518E-07 0.2026141
vn -0.9792587 5.247518E-07 0.2026141
vn 0.8152213 0.5791497 0
vn 0.8152213 0.5791497 0
vn 0.8152213 0.5791497 0
vn 0.8152213 0.5791497 0
vn 0.2663649 -0.9638724 0
vn 0.2663649 -0.9638724 0
vn 0.2663649 -0.9638724 0
vn 0.2663649 -0.9638724 0
vn 0.9994205 -0.03403992 0
vn 0.9994205 -0.03403992 0
vn 0.9994205 -0.03403992 0
vn 0.9994205 -0.03403992 0
vn 0.9627407 -0.2704262 0
vn 0.9627407 -0.2704262 0
vn 0.9627407 -0.2704262 0
vn 0.9627407 -0.2704262 0
vn 6.083388E-07 0 -1
vn 6.083388E-07 0 -1
vn 6.083388E-07 0 -1
vn 6.083388E-07 0 -1
vn 0.3233668 0.9462736 0
vn 0.3233668 0.9462736 0
vn 0.3233668 0.9462736 0
vn 0.3233668 0.9462736 0
vn 0.9574685 3.94834E-07 0.288538
vn 0.9574685 3.94834E-07 0.288538
vn 0.9574685 3.94834E-07 0.288538
vn 0.9574685 3.94834E-07 0.288538
vn 0 0.9625316 0.2711695
vn 0 0.9625316 0.2711695
vn 0 0.9625316 0.2711695
vn 0 0.9625316 0.2711695
vn -0.9635035 0 -0.2676959
vn -0.9635035 0 -0.2676959
vn -0.9635035 0 -0.2676959
vn -0.9635035 0 -0.2676959
vn 0 -0.9751974 -0.2213368
vn 0 -0.9751974 -0.2213368
vn 0 -0.9751974 -0.2213368
vn 0 -0.9751974 -0.2213368
vn 0 -0.9782619 -0.2073728
vn 0 -0.9782619 -0.2073728
vn 0 -0.9782619 -0.2073728
vn 0 -0.9782619 -0.2073728
vn -0.9791479 -3.799323E-07 -0.2031485
vn -0.9791479 -3.799323E-07 -0.2031485
vn -0.9791479 -3.799323E-07 -0.2031485
vn -0.9791479 -3.799323E-07 -0.2031485
vn 0 0.9754153 0.2203746
vn 0 0.9754153 0.2203746
vn 0 0.9754153 0.2203746
vn 0 0.9754153 0.2203746
vn 0.9792587 3.799753E-07 0.2026141
vn 0.9792587 3.799753E-07 0.2026141
vn 0.9792587 3.799753E-07 0.2026141
vn 0.9792587 3.799753E-07 0.2026141
vn -0.9988733 -0.000612058 0.04745148
vn -0.9988733 -0.000612058 0.04745148
vn -0.9988733 -0.000612058 0.04745148
vn -0.9988733 -0.000612058 0.04745148
vn -0.02528209 0.9703645 -0.2403198
vn -0.02528209 0.9703645 -0.2403198
vn -0.02528209 0.9703645 -0.2403198
vn -0.02528209 0.9703645 -0.2403198
vn -0.02528209 0.9703645 -0.2403198
vn -0.02528209 0.9703645 -0.2403198
vn 0.999741 0.005514795 -0.02207876
vn 0.999741 0.005514795 -0.02207876
vn 0.999741 0.005514795 -0.02207876
vn 0.999741 0.005514795 -0.02207876
vn 0.01961789 -0.9590498 0.2825574
vn 0.01961789 -0.9590498 0.2825574
vn 0.01961789 -0.9590498 0.2825574
vn 0.01961789 -0.9590498 0.2825574
vn 0.01961789 -0.9590498 0.2825574
vn 0.01961789 -0.9590498 0.2825574
vn -0.002620503 -0.966281 0.2574763
vn -0.002620503 -0.966281 0.2574763
vn -0.002620503 -0.966281 0.2574763
vn -0.002620503 -0.966281 0.2574763
vn 0.9996037 -0.02797368 -0.003146213
vn 0.9996037 -0.02797368 -0.003146213
vn 0.9996037 -0.02797368 -0.003146213
vn 0.9996037 -0.02797368 -0.003146213
vn 0.0009901389 0.9697906 -0.243937
vn 0.0009901389 0.9697906 -0.243937
vn 0.0009901389 0.9697906 -0.243937
vn 0.0009901389 0.9697906 -0.243937
vn -0.9996244 0.02734833 0.001811331
vn -0.9996244 0.02734833 0.001811331
vn -0.9996244 0.02734833 0.001811331
vn -0.9996244 0.02734833 0.001811331
g cam_tripod_0
f 3/3/3 2/2/2 1/1/1
f 4/4/4 1/1/1 2/2/2
f 7/7/7 6/6/6 5/5/5
f 8/8/8 5/5/5 6/6/6
f 11/11/11 10/10/10 9/9/9
f 12/12/12 9/9/9 10/10/10
f 11/11/11 9/9/9 13/13/13
f 14/14/14 13/13/13 9/9/9
f 17/17/17 16/16/16 15/15/15
f 18/18/18 15/15/15 16/16/16
f 15/15/15 18/18/18 19/19/19
f 20/20/20 19/19/19 18/18/18
f 17/17/17 15/15/15 21/21/21
f 22/22/22 21/21/21 15/15/15
f 15/15/15 19/19/19 22/22/22
f 23/23/23 22/22/22 19/19/19
f 26/26/26 25/25/25 24/24/24
f 27/27/27 24/24/24 25/25/25
f 30/30/30 29/29/29 28/28/28
f 31/31/31 28/28/28 29/29/29
f 34/34/34 33/33/33 32/32/32
f 35/35/35 32/32/32 33/33/33
f 33/33/33 34/34/34 36/36/36
f 37/37/37 36/36/36 34/34/34
f 36/36/36 37/37/37 38/38/38
f 39/39/39 38/38/38 37/37/37
f 35/35/35 33/33/33 40/40/40
f 41/41/41 40/40/40 33/33/33
f 33/33/33 36/36/36 41/41/41
f 42/42/42 41/41/41 36/36/36
f 45/45/45 44/44/44 43/43/43
f 46/46/46 43/43/43 44/44/44
f 49/49/49 48/48/48 47/47/47
f 50/50/50 47/47/47 48/48/48
f 53/53/53 52/52/52 51/51/51
f 54/54/54 51/51/51 52/52/52
f 57/57/57 56/56/56 55/55/55
f 58/58/58 55/55/55 56/56/56
f 61/61/61 60/60/60 59/59/59
f 62/62/62 59/59/59 60/60/60
f 65/65/65 64/64/64 63/63/63
f 66/66/66 63/63/63 64/64/64
f 69/69/69 68/68/68 67/67/67
f 70/70/70 67/67/67 68/68/68
f 73/73/73 72/72/72 71/71/71
f 74/74/74 71/71/71 72/72/72
f 77/77/77 76/76/76 75/75/75
f 78/78/78 75/75/75 76/76/76
f 81/81/81 80/80/80 79/79/79
f 82/82/82 79/79/79 80/80/80
f 85/85/85 84/84/84 83/83/83
f 86/86/86 83/83/83 84/84/84
f 89/89/89 88/88/88 87/87/87
f 90/90/90 87/87/87 88/88/88
f 93/93/93 92/92/92 91/91/91
f 94/94/94 91/91/91 92/92/92
f 97/97/97 96/96/96 95/95/95
f 98/98/98 95/95/95 96/96/96
f 101/101/101 100/100/100 99/99/99
f 102/102/102 99/99/99 100/100/100
f 105/105/105 104/104/104 103/103/103
f 106/106/106 103/103/103 104/104/104
f 109/109/109 108/108/108 107/107/107
f 110/110/110 107/107/107 108/108/108
f 113/113/113 112/112/112 111/111/111
f 114/114/114 111/111/111 112/112/112
f 117/117/117 116/116/116 115/115/115
f 118/118/118 115/115/115 116/116/116
f 121/121/121 120/120/120 119/119/119
f 122/122/122 119/119/119 120/120/120
f 125/125/125 124/124/124 123/123/123
f 126/126/126 123/123/123 124/124/124
f 129/129/129 128/128/128 127/127/127
f 130/130/130 127/127/127 128/128/128
f 133/133/133 132/132/132 131/131/131
f 134/134/134 131/131/131 132/132/132
f 137/137/137 136/136/136 135/135/135
f 138/138/138 135/135/135 136/136/136
f 141/141/141 140/140/140 139/139/139
f 144/144/144 143/143/143 142/142/142
f 147/147/147 146/146/146 145/145/145
f 148/148/148 145/145/145 146/146/146
f 151/151/151 150/150/150 149/149/149
f 154/154/154 153/153/153 152/152/152
f 157/157/157 156/156/156 155/155/155
f 158/158/158 155/155/155 156/156/156
f 161/161/161 160/160/160 159/159/159
f 162/162/162 159/159/159 160/160/160
f 165/165/165 164/164/164 163/163/163
f 166/166/166 163/163/163 164/164/164
f 169/169/169 168/168/168 167/167/167
f 170/170/170 167/167/167 168/168/168
