g Cube.003
v 0.1762154 -0.1790509 -1.334892
v 0.09602451 -0.1758859 2.565265
v 0.05697519 0.1764537 2.609151
v 0.1409882 0.1893707 -1.330159
v -0.2130814 -0.0004644087 -1.326305
v 0.05697519 0.1764537 2.609151
v -0.1734885 -0.1002127 2.564667
v 0.1409882 0.1893707 -1.330159
v 0.05697519 0.1764537 2.609151
v -0.2130814 -0.0004644087 -1.326305
v 0.1409882 0.1893707 -1.330159
v -0.2130814 -0.0004644087 -1.326305
v 0.1762154 -0.1790509 -1.334892
v -0.2130814 -0.0004644087 -1.326305
v 0.09602451 -0.1758859 2.565265
v 0.1762154 -0.1790509 -1.334892
v -0.1734885 -0.1002127 2.564667
v 0.05697519 0.1764537 2.609151
v -1.134135 -0.001256298 1.92342
v -0.1734885 -0.1002127 2.564667
v -0.8444715 0.8207169 1.824356
v 0.09602451 -0.1758859 2.565265
v 1.131602 -0.001255881 1.923779
v 0.05697519 0.1764537 2.609151
v 0.8418767 -0.8211622 1.825788
v -0.1734885 -0.1002127 2.564667
v 0.004231665 -1.172033 1.923327
v 0.09602451 -0.1758859 2.565265
v -0.8436575 -0.8214469 1.82575
v 0.05697519 0.1764537 2.609151
v 0.8426807 0.8204265 1.824415
v 0.004231079 1.169818 1.924292
v 0.6109166 -0.2537951 3.184267
v 0.6000147 0.8906751 3.073803
v 0.2530633 0.5713842 3.219631
v 1.113549 -0.0005176859 2.981164
v 0.003121911 -0.6582394 3.172103
v 0.6109166 -0.2537951 3.184267
v 0.8418767 -0.8211622 1.825788
v 0.2530633 0.5713842 3.219631
v -0.7055824 0.6781113 3.061613
v -0.8444715 0.8207169 1.824356
v 0.6109166 -0.2537951 3.184267
v 0.2530633 0.5713842 3.219631
v 0.8426807 0.8204265 1.824415
v 1.131602 -0.001255881 1.923779
v 0.002726525 -0.6355414 4.035589
v -0.0009230375 -0.0006120205 8.91747
v 0.3714018 -0.2346482 5.381371
v 0.25779 0.5804205 4.212343
v -0.0009230375 -0.0006120205 8.91747
v -0.362133 0.4155846 4.705635
v 0.3714018 -0.2346482 5.381371
v -0.0009230375 -0.0006120205 8.91747
v 0.25779 0.5804205 4.212343
v -0.362133 0.4155846 4.705635
v -0.0009230375 -0.0006120205 8.91747
v -0.3721457 -0.234405 5.383083
v -0.3721457 -0.234405 5.383083
v -0.0009230375 -0.0006120205 8.91747
v 0.002726525 -0.6355414 4.035589
v -0.6128173 -0.2536433 3.184477
v -1.116896 -0.0005175043 2.980629
v -0.7595792 -0.7638006 3.010197
v 0.003121911 -0.6582394 3.172103
v 0.7571161 -0.7638249 3.01026
v 0.6109166 -0.2537951 3.184267
v 1.113549 -0.0005176859 2.981164
v 0.25779 0.5804205 4.212343
v 0.6000147 0.8906751 3.073803
v 0.3714018 -0.2346482 5.381371
v -0.7055824 0.6781113 3.061613
v -1.116896 -0.0005175043 2.980629
v -0.6128173 -0.2536433 3.184477
v -0.8436575 -0.8214469 1.82575
v 0.003121911 -0.6582394 3.172103
v 0.004231665 -1.172033 1.923327
v 0.8426807 0.8204265 1.824415
v 0.2530633 0.5713842 3.219631
v 0.004231079 1.169818 1.924292
v -1.134135 -0.001256298 1.92342
v -0.8444715 0.8207169 1.824356
v -0.6128173 -0.2536433 3.184477
v 1.131602 -0.001255881 1.923779
v 0.8418767 -0.8211622 1.825788
v 0.6109166 -0.2537951 3.184267
v 0.002726525 -0.6355414 4.035589
v 0.3714018 -0.2346482 5.381371
v 0.7571161 -0.7638249 3.01026
v 0.25779 0.5804205 4.212343
v -0.362133 0.4155846 4.705635
v -0.7055824 0.6781113 3.061613
v -0.362133 0.4155846 4.705635
v -1.116896 -0.0005175043 2.980629
v -0.7055824 0.6781113 3.061613
v -0.3721457 -0.234405 5.383083
v 0.7571161 -0.7638249 3.01026
v 0.3714018 -0.2346482 5.381371
v 1.113549 -0.0005176859 2.981164
v -0.7595792 -0.7638006 3.010197
v 0.002726525 -0.6355414 4.035589
v 0.003121911 -0.6582394 3.172103
v 0.004231665 -1.172033 1.923327
v 0.8418767 -0.8211622 1.825788
v 0.09602451 -0.1758859 2.565265
v 0.004231079 1.169818 1.924292
v -0.8444715 0.8207169 1.824356
v 0.05697519 0.1764537 2.609151
v 1.131602 -0.001255881 1.923779
v 0.8426807 0.8204265 1.824415
v 0.05697519 0.1764537 2.609151
v -1.134135 -0.001256298 1.92342
v -0.8436575 -0.8214469 1.82575
v -0.1734885 -0.1002127 2.564667
v -0.8444715 0.8207169 1.824356
v -0.7055824 0.6781113 3.061613
v -0.6128173 -0.2536433 3.184477
v -0.8436575 -0.8214469 1.82575
v -0.6128173 -0.2536433 3.184477
v 0.003121911 -0.6582394 3.172103
v 0.6000147 0.8906751 3.073803
v -0.7055824 0.6781113 3.061613
v 0.2530633 0.5713842 3.219631
v 0.7571161 -0.7638249 3.01026
v 1.113549 -0.0005176859 2.981164
v 0.6109166 -0.2537951 3.184267
v -0.6128173 -0.2536433 3.184477
v -0.7595792 -0.7638006 3.010197
v 0.003121911 -0.6582394 3.172103
v 0.004231079 1.169818 1.924292
v 0.2530633 0.5713842 3.219631
v -0.8444715 0.8207169 1.824356
v 0.004231665 -1.172033 1.923327
v 0.003121911 -0.6582394 3.172103
v 0.8418767 -0.8211622 1.825788
v -0.6128173 -0.2536433 3.184477
v -0.8436575 -0.8214469 1.82575
v -1.134135 -0.001256298 1.92342
v -1.116896 -0.0005175043 2.980629
v -0.3721457 -0.234405 5.383083
v -0.7595792 -0.7638006 3.010197
v -0.7595792 -0.7638006 3.010197
v -0.3721457 -0.234405 5.383083
v 0.002726525 -0.6355414 4.035589
v 0.003121911 -0.6582394 3.172103
v 0.002726525 -0.6355414 4.035589
v 0.7571161 -0.7638249 3.01026
v 0.6000147 0.8906751 3.073803
v 0.25779 0.5804205 4.212343
v -0.7055824 0.6781113 3.061613
vt 0 0
vt 0 0
vt 0 0
vt 0 0
vt 0 0
vt 0 0
vt 0 0
vt 0 0
vt 0 0
vt 0 0
vt 0 0
vt 0 0
vt 0 0
vt 0 0
vt 0 0
vt 0 0
vt 0 0
vt 0 0
vt 0 0
vt 0 0
vt 0 0
vt 0 0
vt 0 0
vt 0 0
vt 0 0
vt 0 0
vt 0 0
vt 0 0
vt 0 0
vt 0 0
vt 0 0
vt 0 0
vt 0 0
vt 0 0
vt 0 0
vt 0 0
vt 0 0
vt 0 0
vt 0 0
vt 0 0
vt 0 0
vt 0 0
vt 0 0
vt 0 0
vt 0 0
vt 0 0
vt 0 0
vt 0 0
vt 0 0
vt 0 0
vt 0 0
vt 0 0
vt 0 0
vt 0 0
vt 0 0
vt 0 0
vt 0 0
vt 0 0
vt 0 0
vt 0 0
vt 0 0
vt 0 0
vt 0 0
vt 0 0
vt 0 0
vt 0 0
vt 0 0
vt 0 0
vt 0 0
vt 0 0
vt 0 0
vt 0 0
vt 0 0
vt 0 0
vt 0 0
vt 0 0
vt 0 0
vt 0 0
vt 0 0
vt 0 0
vt 0 0
vt 0 0
vt 0 0
vt 0 0
vt 0 0
vt 0 0
vt 0 0
vt 0 0
vt 0 0
vt 0 0
vt 0 0
vt 0 0
vt 0 0
vt 0 0
vt 0 0
vt 0 0
vt 0 0
vt 0 0
vt 0 0
vt 0 0
vt 0 0
vt 0 0
vt 0 0
vt 0 0
vt 0 0
vt 0 0
vt 0 0
vt 0 0
vt 0 0
vt 0 0
vt 0 0
vt 0 0
vt 0 0
vt 0 0
vt 0 0
vt 0 0
vt 0 0
vt 0 0
vt 0 0
vt 0 0
vt 0 0
vt 0 0
vt 0 0
vt 0 0
vt 0 0
vt 0 0
vt 0 0
vt 0 0
vt 0 0
vt 0 0
vt 0 0
vt 0 0
vt 0 0
vt 0 0
vt 0 0
vt 0 0
vt 0 0
vt 0 0
vt 0 0
vt 0 0
vt 0 0
vt 0 0
vt 0 0
vt 0 0
vt 0 0
vt 0 0
vt 0 0
vt 0 0
vt 0 0
vt 0 0
vn 0.9939831 0.1076271 0.02034988
vn 0.9939831 0.1076271 0.02034988
vn 0.9939831 0.1076271 0.02034988
vn 0.9952551 0.09488609 0.02153677
vn -0.7700302 0.637549 0.0241796
vn -0.7700302 0.637549 0.0241796
vn -0.7700302 0.637549 0.0241796
vn -0.4725696 0.881264 -0.007188753
vn -0.4725696 0.881264 -0.007188753
vn -0.4725696 0.881264 -0.007188753
vn -0.01690289 0.01122648 -0.9997942
vn -0.01690289 0.01122648 -0.9997942
vn -0.01690289 0.01122648 -0.9997942
vn -0.3601631 -0.9327925 -0.01344017
vn -0.3601631 -0.9327925 -0.01344017
vn -0.3601631 -0.9327925 -0.01344017
vn -0.3601631 -0.9327925 -0.01344017
vn 0.5099443 -0.2817983 -0.8127401
vn 0.5099443 -0.2817983 -0.8127401
vn 0.5099443 -0.2817983 -0.8127401
vn 0.5099443 -0.2817983 -0.8127401
vn -0.5402273 0.2140232 -0.813848
vn -0.5402273 0.2140232 -0.813848
vn -0.5402273 0.2140232 -0.813848
vn -0.5402273 0.2140232 -0.813848
vn 0.2717602 0.526921 -0.8052953
vn 0.2717602 0.526921 -0.8052953
vn 0.2717602 0.526921 -0.8052953
vn 0.2717602 0.526921 -0.8052953
vn -0.3207494 -0.5491046 -0.7717538
vn -0.3207494 -0.5491046 -0.7717538
vn -0.3207494 -0.5491046 -0.7717538
vn -0.3233928 -0.0939621 -0.9415882
vn -0.3233928 -0.0939621 -0.9415882
vn -0.3233928 -0.0939621 -0.9415882
vn -0.3233928 -0.0939621 -0.9415882
vn 0.5009702 -0.7650232 0.4046831
vn 0.5009702 -0.7650232 0.4046831
vn 0.5009702 -0.7650232 0.4046831
vn 0.0931548 0.990239 0.1036773
vn 0.0931548 0.990239 0.1036773
vn 0.0931548 0.990239 0.1036773
vn 0.8402765 0.3465311 0.4169552
vn 0.8402765 0.3465311 0.4169552
vn 0.8402765 0.3465311 0.4169552
vn 0.8406848 0.3459802 0.4165895
vn 0.5181568 -0.8480929 0.1106889
vn 0.5181568 -0.8480929 0.1106889
vn 0.5181568 -0.8480929 0.1106889
vn -0.1715947 0.9788442 0.1114415
vn -0.1715947 0.9788442 0.1114415
vn -0.1715947 0.9788442 0.1114415
vn 0.9631227 0.2554485 0.08450279
vn 0.9631227 0.2554485 0.08450279
vn 0.9631227 0.2554485 0.08450279
vn -0.9886391 0.115492 0.09619885
vn -0.9886391 0.115492 0.09619885
vn -0.9886391 0.115492 0.09619885
vn -0.5139744 -0.8506903 0.1102552
vn -0.5139744 -0.8506903 0.1102552
vn -0.5139744 -0.8506903 0.1102552
vn 0.4427379 0.1731798 -0.8797681
vn 0.4427379 0.1731798 -0.8797681
vn 0.4427379 0.1731798 -0.8797681
vn -0.1646345 0.2758906 -0.9469846
vn -0.1646345 0.2758906 -0.9469846
vn -0.1646345 0.2758906 -0.9469846
vn 0.8038911 0.4993327 0.3231501
vn 0.8038911 0.4993327 0.3231501
vn 0.8038911 0.4993327 0.3231501
vn 0.8038911 0.4993327 0.3231501
vn 0.333988 -0.0904654 -0.938226
vn 0.333988 -0.0904654 -0.938226
vn 0.333988 -0.0904654 -0.938226
vn -0.3920653 -0.8508664 0.3497304
vn -0.3920653 -0.8508664 0.3497304
vn -0.3920653 -0.8508664 0.3497304
vn 0.396618 0.8599876 0.3211161
vn 0.396618 0.8599876 0.3211161
vn 0.396618 0.8599876 0.3211161
vn -0.8404298 0.3463954 0.4167589
vn -0.8404298 0.3463954 0.4167589
vn -0.8404298 0.3463954 0.4167589
vn 0.8886024 -0.3495011 0.2970435
vn 0.8886024 -0.3495011 0.2970435
vn 0.8886024 -0.3495011 0.2970435
vn 0.1637261 -0.9568229 0.2401742
vn 0.1637261 -0.9568229 0.2401742
vn 0.1637261 -0.9568229 0.2401742
vn -0.1162709 0.9767231 0.1802586
vn -0.1162709 0.9767231 0.1802586
vn -0.1162709 0.9767231 0.1802586
vn -0.8701134 0.4031808 0.2834569
vn -0.8701134 0.4031808 0.2834569
vn -0.8701134 0.4031808 0.2834569
vn -0.8701134 0.4031808 0.2834569
vn 0.8843107 -0.4040163 0.23402
vn 0.8843107 -0.4040163 0.23402
vn 0.8843107 -0.4040163 0.23402
vn 0.1316106 -0.9909576 0.02610904
vn 0.1316106 -0.9909576 0.02610904
vn 0.1316106 -0.9909576 0.02610904
vn -0.3151817 0.5344293 -0.7842487
vn -0.3151817 0.5344293 -0.7842487
vn -0.3151817 0.5344293 -0.7842487
vn 0.3103828 -0.5283511 -0.790258
vn 0.3103828 -0.5283511 -0.790258
vn 0.3103828 -0.5283511 -0.790258
vn -0.548354 -0.287762 -0.7851757
vn -0.548354 -0.287762 -0.7851757
vn -0.548354 -0.287762 -0.7851757
vn 0.5519495 0.2886389 -0.7823294
vn 0.5519495 0.2886389 -0.7823294
vn 0.5519495 0.2886389 -0.7823294
vn -0.9911782 -0.08530606 0.101433
vn -0.9911782 -0.08530606 0.101433
vn -0.9911782 -0.08530606 0.101433
vn -0.4962358 -0.7678391 0.405183
vn -0.4962358 -0.7678391 0.405183
vn -0.4962358 -0.7678391 0.405183
vn 0.08810376 -0.4914575 -0.8664336
vn 0.08810376 -0.4914575 -0.8664336
vn 0.08810376 -0.4914575 -0.8664336
vn -0.4427713 0.1732221 -0.879743
vn -0.4427713 0.1732221 -0.879743
vn -0.4427713 0.1732221 -0.879743
vn 0.1627449 0.2767197 -0.9470693
vn 0.1627449 0.2767197 -0.9470693
vn 0.1627449 0.2767197 -0.9470693
vn -0.3848037 0.8075401 0.4469955
vn -0.3848037 0.8075401 0.4469955
vn -0.3848037 0.8075401 0.4469955
vn 0.3963132 -0.8489348 0.3496363
vn 0.3963132 -0.8489348 0.3496363
vn 0.3963132 -0.8489348 0.3496363
vn -0.8883529 -0.3500081 0.2971925
vn -0.8883529 -0.3500081 0.2971925
vn -0.8883529 -0.3500081 0.2971925
vn -0.8838577 -0.4046735 0.2345955
vn -0.8838577 -0.4046735 0.2345955
vn -0.8838577 -0.4046735 0.2345955
vn -0.161725 -0.9572163 0.2399625
vn -0.161725 -0.9572163 0.2399625
vn -0.161725 -0.9572163 0.2399625
vn -0.1331631 -0.9907535 0.02598248
vn -0.1331631 -0.9907535 0.02598248
vn -0.1331631 -0.9907535 0.02598248
vn -0.1588955 0.9636385 0.2148325
vn -0.1588955 0.9636385 0.2148325
vn -0.1588955 0.9636385 0.2148325
g Cube.003_0
f 3/3/3 2/2/2 1/1/1
f 3/3/3 1/1/1 4/4/4
f 7/7/7 6/6/6 5/5/5
f 10/10/10 9/9/9 8/8/8
f 13/13/13 12/12/12 11/11/11
f 16/16/16 15/15/15 14/14/14
f 15/15/15 17/17/17 14/14/14
g Cube.003_1
f 20/20/20 19/19/19 18/18/18
f 19/19/19 21/21/21 18/18/18
f 24/24/24 23/23/23 22/22/22
f 23/23/23 25/25/25 22/22/22
f 28/28/28 27/27/27 26/26/26
f 27/27/27 29/29/29 26/26/26
f 32/32/32 31/31/31 30/30/30
f 35/35/35 34/34/34 33/33/33
f 34/34/34 36/36/36 33/33/33
f 39/39/39 38/38/38 37/37/37
f 42/42/42 41/41/41 40/40/40
f 45/45/45 44/44/44 43/43/43
f 46/46/46 45/45/45 43/43/43
f 49/49/49 48/48/48 47/47/47
f 52/52/52 51/51/51 50/50/50
f 55/55/55 54/54/54 53/53/53
f 58/58/58 57/57/57 56/56/56
f 61/61/61 60/60/60 59/59/59
f 64/64/64 63/63/63 62/62/62
f 67/67/67 66/66/66 65/65/65
f 70/70/70 69/69/69 68/68/68
f 69/69/69 71/71/71 68/68/68
f 74/74/74 73/73/73 72/72/72
f 77/77/77 76/76/76 75/75/75
f 80/80/80 79/79/79 78/78/78
f 83/83/83 82/82/82 81/81/81
f 86/86/86 85/85/85 84/84/84
f 89/89/89 88/88/88 87/87/87
f 92/92/92 91/91/91 90/90/90
f 95/95/95 94/94/94 93/93/93
f 94/94/94 96/96/96 93/93/93
f 99/99/99 98/98/98 97/97/97
f 102/102/102 101/101/101 100/100/100
f 105/105/105 104/104/104 103/103/103
f 108/108/108 107/107/107 106/106/106
f 111/111/111 110/110/110 109/109/109
f 114/114/114 113/113/113 112/112/112
f 117/117/117 116/116/116 115/115/115
f 120/120/120 119/119/119 118/118/118
f 123/123/123 122/122/122 121/121/121
f 126/126/126 125/125/125 124/124/124
f 129/129/129 128/128/128 127/127/127
f 132/132/132 131/131/131 130/130/130
f 135/135/135 134/134/134 133/133/133
f 138/138/138 137/137/137 136/136/136
f 141/141/141 140/140/140 139/139/139
f 144/144/144 143/143/143 142/142/142
f 147/147/147 146/146/146 145/145/145
f 150/150/150 149/149/149 148/148/148
