g Dirt
v -0.02704796 -0.007373909 -0.02279158
v -0.02826374 -0.007193603 0.02420459
v -0.03153952 -0.01696005 -2.223306E-09
v -0.01683022 -0.06545771 -0.0188679
v 0.02043805 -0.0468223 -0.02019748
v -0.002561214 -0.04500986 -0.02262919
v 0.02043805 -0.0468223 -0.02019748
v -0.004322011 -0.07841495 -0.01343875
v -0.02629078 -0.04572147 0.0004359854
v -0.02036359 -0.05349978 -0.01106585
v -0.02704796 -0.007373909 -0.02279158
v 0.02547904 -0.006365009 -0.02560688
v 0.01468487 -0.03103696 -0.02581135
v 0.02539691 -0.005959672 0.02562862
v 0.02539691 -0.005959672 0.02562862
v 0.01549484 -0.03877713 0.01875741
v -0.008085901 -0.05793276 0.01773888
v -0.02688345 -4.997552E-09 -0.02616135
v 0.01468487 -0.03103696 -0.02581135
v 0.02598524 -5.027213E-09 -0.0263841
v 0.01468487 -0.03103696 -0.02581135
v -0.02704796 -0.007373909 -0.02279158
v -0.02337462 -0.06242229 0.009169375
v -0.02794683 -0.06843219 0.008170969
v -0.02036359 -0.05349978 -0.01106585
v -0.008085901 -0.05793276 0.01773888
v -0.004175 -0.07711384 0.003026063
v -0.02337462 -0.06242229 0.009169375
v -0.004175 -0.07711384 0.003026063
v 0.000740822 -0.1071296 -0.001986898
v -0.02337462 -0.06242229 0.009169375
v -0.02794683 -0.06843219 0.008170969
v 0.000740822 -0.1071296 -0.001986898
v -0.03003603 -0.06992421 -0.008103297
v -0.02337462 -0.06242229 0.009169375
v 0.000740822 -0.1071296 -0.001986898
v -0.02794683 -0.06843219 0.008170969
v 0.02043805 -0.0468223 -0.02019748
v -0.004322011 -0.07841495 -0.01343875
v -0.004175 -0.07711384 0.003026063
v 0.02043805 -0.0468223 -0.02019748
v -0.004175 -0.07711384 0.003026063
v 0.01549484 -0.03877713 0.01875741
v -0.03003603 -0.06992421 -0.008103297
v -0.002561214 -0.04500986 -0.02262919
v -0.02036359 -0.05349978 -0.01106585
v -0.01683022 -0.06545771 -0.0188679
v -0.01874831 -0.04812934 0.01854142
v -0.008085901 -0.05793276 0.01773888
v -0.02337462 -0.06242229 0.009169375
v -0.01874831 -0.04812934 0.01854142
v -0.02036359 -0.05349978 -0.01106585
v -0.02629078 -0.04572147 0.0004359854
v -0.02036359 -0.05349978 -0.01106585
v -0.01874831 -0.04812934 0.01854142
v -0.02337462 -0.06242229 0.009169375
v -0.02826374 -0.007193603 0.02420459
v -0.02629078 -0.04572147 0.0004359854
v -0.03153952 -0.01696005 -2.223306E-09
v -0.01874831 -0.04812934 0.01854142
v -0.02704796 -0.007373909 -0.02279158
v 0.02043805 -0.0468223 -0.02019748
v 0.01468487 -0.03103696 -0.02581135
v 0.02043805 -0.0468223 -0.02019748
v -0.02704796 -0.007373909 -0.02279158
v -0.002561214 -0.04500986 -0.02262919
v -0.008085901 -0.05793276 0.01773888
v -0.01874831 -0.04812934 0.01854142
v -0.02826374 -0.007193603 0.02420459
v 0.02539691 -0.005959672 0.02562862
v -0.02826374 -0.007193603 0.02420459
v 0.01468487 -0.03103696 -0.02581135
v 0.01549484 -0.03877713 0.01875741
v 0.02539691 -0.005959672 0.02562862
v -0.02704796 -0.007373909 -0.02279158
v -0.02036359 -0.05349978 -0.01106585
v -0.002561214 -0.04500986 -0.02262919
v 0.02043805 -0.0468223 -0.02019748
v 0.01549484 -0.03877713 0.01875741
v 0.01468487 -0.03103696 -0.02581135
v -0.004322011 -0.07841495 -0.01343875
v 0.000740822 -0.1071296 -0.001986898
v -0.004175 -0.07711384 0.003026063
v -0.03003603 -0.06992421 -0.008103297
v 0.000740822 -0.1071296 -0.001986898
v -0.01683022 -0.06545771 -0.0188679
v -0.02794683 -0.06843219 0.008170969
v -0.03003603 -0.06992421 -0.008103297
v -0.02036359 -0.05349978 -0.01106585
v -0.01683022 -0.06545771 -0.0188679
v 0.000740822 -0.1071296 -0.001986898
v -0.004322011 -0.07841495 -0.01343875
v 0.01549484 -0.03877713 0.01875741
v -0.004175 -0.07711384 0.003026063
v -0.008085901 -0.05793276 0.01773888
v -0.02629078 -0.04572147 0.0004359854
v -0.02704796 -0.007373909 -0.02279158
v -0.03153952 -0.01696005 -2.223306E-09
v 0.02539691 -0.005959672 0.02562862
v -0.02694652 2.045681E-09 0.02673243
v 0.02633749 2.055009E-09 0.02680248
v -0.02826374 -0.007193603 0.02420459
v 0.02547904 -0.006365009 -0.02560688
v 0.02598524 -5.027213E-09 -0.0263841
v 0.01468487 -0.03103696 -0.02581135
v 0.02547904 -0.006365009 -0.02560688
v 0.02633749 2.055009E-09 0.02680248
v 0.02598524 -5.027213E-09 -0.0263841
v 0.02539691 -0.005959672 0.02562862
v -0.02826374 -0.007193603 0.02420459
v -0.02688345 -4.997552E-09 -0.02616135
v -0.02694652 2.045681E-09 0.02673243
v -0.02704796 -0.007373909 -0.02279158
vt -1.06488 0.8973061
vt -1.112746 -0.9529369
vt -1.241714 -8.940697E-08
vt -0.662607 0.7428309
vt 0.8046474 0.7951763
vt -0.1008352 0.890913
vt 0.8046474 0.7951763
vt -0.1701579 0.5290848
vt -1.03507 -0.0171648
vt -0.801716 0.4356633
vt -1.06488 0.8973061
vt 1.003112 1.008144
vt 0.5781444 1.016195
vt 0.9998784 -1.009001
vt 0.9998784 -1.009001
vt 0.6100332 -0.7384806
vt -0.3183426 -0.6983808
vt -1.058404 1.029974
vt 0.5781444 1.016195
vt 1.00967 1.038997
vt 0.5781444 1.016195
vt -1.06488 0.8973061
vt -0.9202605 -0.3609989
vt -1.100269 -0.3216916
vt -0.801716 0.4356633
vt -0.3183426 -0.6983808
vt -0.1643701 -0.1191362
vt -0.9202605 -0.3609989
vt -0.1643701 -0.1191362
vt 0.02916622 0.07822465
vt -0.9202605 -0.3609989
vt -1.100269 -0.3216916
vt 0.02916622 0.07822465
vt -1.182521 0.3190275
vt -0.9202605 -0.3609989
vt 0.02916622 0.07822465
vt -1.100269 -0.3216916
vt 0.8046474 0.7951763
vt -0.1701579 0.5290848
vt -0.1643701 -0.1191362
vt 0.8046474 0.7951763
vt -0.1643701 -0.1191362
vt 0.6100332 -0.7384806
vt -1.182521 0.3190275
vt -0.1008352 0.890913
vt -0.801716 0.4356633
vt -0.662607 0.7428309
vt -0.7381223 -0.7299771
vt -0.3183426 -0.6983808
vt -0.9202605 -0.3609989
vt -0.7381223 -0.7299771
vt -0.801716 0.4356633
vt -1.03507 -0.0171648
vt -0.801716 0.4356633
vt -0.7381223 -0.7299771
vt -0.9202605 -0.3609989
vt -1.112746 -0.9529369
vt -1.03507 -0.0171648
vt -1.241714 -8.940697E-08
vt -0.7381223 -0.7299771
vt -1.06488 0.8973061
vt 0.8046474 0.7951763
vt 0.5781444 1.016195
vt 0.8046474 0.7951763
vt -1.06488 0.8973061
vt -0.1008352 0.890913
vt -0.3183426 -0.6983808
vt -0.7381223 -0.7299771
vt -1.112746 -0.9529369
vt 0.9998784 -1.009001
vt -1.112746 -0.9529369
vt 0.5781444 1.016195
vt 0.6100332 -0.7384806
vt 0.9998784 -1.009001
vt -1.06488 0.8973061
vt -0.801716 0.4356633
vt -0.1008352 0.890913
vt 0.8046474 0.7951763
vt 0.6100332 -0.7384806
vt 0.5781444 1.016195
vt -0.1701579 0.5290848
vt 0.02916622 0.07822465
vt -0.1643701 -0.1191362
vt -1.182521 0.3190275
vt 0.02916622 0.07822465
vt -0.662607 0.7428309
vt -1.100269 -0.3216916
vt -1.182521 0.3190275
vt -0.801716 0.4356633
vt -0.662607 0.7428309
vt 0.02916622 0.07822465
vt -0.1701579 0.5290848
vt 0.6100332 -0.7384806
vt -0.1643701 -0.1191362
vt -0.3183426 -0.6983808
vt -1.03507 -0.0171648
vt -1.06488 0.8973061
vt -1.241714 -8.940697E-08
vt 0.9998784 -1.009001
vt -1.060887 -1.052458
vt 1.036909 -1.055216
vt -1.112746 -0.9529369
vt 1.003112 1.008144
vt 1.00967 1.038997
vt 0.5781444 1.016195
vt 1.003112 1.008144
vt 1.036909 -1.055216
vt 1.036412 1.038491
vt 0.9998784 -1.009001
vt -1.112746 -0.9529369
vt -1.058404 1.029974
vt -1.060887 -1.052458
vt -1.06488 0.8973061
vn -0.9270982 0.3739557 -0.02541851
vn -0.9270982 0.3739557 -0.02541851
vn -0.9270982 0.3739557 -0.02541851
vn 0.1002522 -0.2688374 -0.957954
vn 0.1002522 -0.2688374 -0.957954
vn 0.1002522 -0.2688374 -0.957954
vn 0.1002522 -0.2688374 -0.957954
vn 0.1002522 -0.2688374 -0.957954
vn -0.9197009 -0.216536 -0.3275093
vn -0.9197009 -0.216536 -0.3275093
vn -0.9197009 -0.216536 -0.3275093
vn 0.9161307 -0.4008529 0.004639751
vn 0.9161307 -0.4008529 0.004639751
vn 0.9161307 -0.4008529 0.004639751
vn 0.1605701 -0.2484545 0.9552422
vn 0.1605701 -0.2484545 0.9552422
vn 0.1605701 -0.2484545 0.9552422
vn -0.04294925 -0.0319732 -0.9985655
vn -0.04294925 -0.0319732 -0.9985655
vn -0.004443661 -0.01714219 -0.9998432
vn -0.04294925 -0.0319732 -0.9985655
vn -0.04294925 -0.0319732 -0.9985655
vn -0.7991291 0.5848733 0.1389821
vn -0.7991291 0.5848733 0.1389821
vn -0.7991291 0.5848733 0.1389821
vn -0.2363338 -0.6212604 0.7471157
vn -0.2363338 -0.6212604 0.7471157
vn -0.2363338 -0.6212604 0.7471157
vn 0.2128533 -0.1269406 0.9688032
vn 0.2128533 -0.1269406 0.9688032
vn 0.2128533 -0.1269406 0.9688032
vn -0.7735608 -0.614316 0.155626
vn -0.7735608 -0.614316 0.155626
vn -0.7735608 -0.614316 0.155626
vn 0.06259943 -0.2097233 0.9757548
vn 0.06259943 -0.2097233 0.9757548
vn 0.06259943 -0.2097233 0.9757548
vn 0.7906699 -0.610854 0.04121215
vn 0.7906699 -0.610854 0.04121215
vn 0.7906699 -0.610854 0.04121215
vn 0.8315986 -0.5134971 0.2115764
vn 0.8315986 -0.5134971 0.2115764
vn 0.8315986 -0.5134971 0.2115764
vn -0.6353827 0.2814296 -0.7190871
vn -0.6353827 0.2814296 -0.7190871
vn -0.6353827 0.2814296 -0.7190871
vn -0.6353827 0.2814296 -0.7190871
vn -0.3388396 -0.4367484 0.8333297
vn -0.3388396 -0.4367484 0.8333297
vn -0.3388396 -0.4367484 0.8333297
vn -0.9882091 -0.1318531 0.07783037
vn -0.9882091 -0.1318531 0.07783037
vn -0.9882091 -0.1318531 0.07783037
vn -0.9882091 -0.1318531 0.07783037
vn -0.9882091 -0.1318531 0.07783037
vn -0.9882091 -0.1318531 0.07783037
vn -0.9355043 -0.2189667 0.2772821
vn -0.9355043 -0.2189667 0.2772821
vn -0.9355043 -0.2189667 0.2772821
vn -0.9355043 -0.2189667 0.2772821
vn -0.06560285 -0.1439014 -0.9874151
vn -0.06560285 -0.1439014 -0.9874151
vn -0.06560285 -0.1439014 -0.9874151
vn -0.06560285 -0.1439014 -0.9874151
vn -0.06560285 -0.1439014 -0.9874151
vn -0.06560285 -0.1439014 -0.9874151
vn -0.0651397 -0.1515887 0.9862949
vn -0.0651397 -0.1515887 0.9862949
vn -0.0651397 -0.1515887 0.9862949
vn -0.02317158 -0.1354368 0.990515
vn -0.02317158 -0.1354368 0.990515
vn 0.9590243 -0.2756942 -0.06530815
vn 0.9590243 -0.2756942 -0.06530815
vn 0.9590243 -0.2756942 -0.06530815
vn -0.4252461 -0.2803871 -0.8605514
vn -0.4252461 -0.2803871 -0.8605514
vn -0.4252461 -0.2803871 -0.8605514
vn 0.933355 0.3561371 0.04488733
vn 0.933355 0.3561371 0.04488733
vn 0.933355 0.3561371 0.04488733
vn 0.9860286 0.1651361 -0.02185373
vn 0.9860286 0.1651361 -0.02185373
vn 0.9860286 0.1651361 -0.02185373
vn -0.4446279 -0.4909631 -0.7491738
vn -0.4446279 -0.4909631 -0.7491738
vn -0.4446279 -0.4909631 -0.7491738
vn -0.8550184 0.51481 0.06256407
vn -0.8550184 0.51481 0.06256407
vn -0.8550184 0.51481 0.06256407
vn 0.02379765 -0.3667137 -0.9300295
vn 0.02379765 -0.3667137 -0.9300295
vn 0.02379765 -0.3667137 -0.9300295
vn 0.3826367 -0.5119236 0.7691056
vn 0.3826367 -0.5119236 0.7691056
vn 0.3826367 -0.5119236 0.7691056
vn -0.9488193 -0.1771162 -0.2614799
vn -0.9488193 -0.1771162 -0.2614799
vn -0.9488193 -0.1771162 -0.2614799
vn -0.01342535 -0.04329171 0.9989723
vn -0.01342535 -0.04329171 0.9989723
vn -0.01342535 -0.04329171 0.9989723
vn -0.01342535 -0.04329171 0.9989723
vn 0.06350724 -0.01951571 -0.9977906
vn 0.371493 -0.1549445 -0.9154153
vn 0.06350724 -0.01951571 -0.9977906
vn 0.9997733 -0.02128016 0.0007531416
vn 0.9997733 -0.02128016 0.0007531416
vn 0.9997733 -0.02128016 0.0007531416
vn 0.9997733 -0.02128016 0.0007531416
vn -0.9997715 0.01709127 -0.01283242
vn -0.9997715 0.01709127 -0.01283242
vn -0.9997715 0.01709127 -0.01283242
vn -0.9997715 0.01709127 -0.01283242
g Dirt_0
f 3/3/3 2/2/2 1/1/1
f 6/6/6 5/5/5 4/4/4
f 8/8/8 4/4/4 7/7/7
f 11/11/11 10/10/10 9/9/9
f 14/14/14 13/13/13 12/12/12
f 17/17/17 16/16/16 15/15/15
f 20/20/20 19/19/19 18/18/18
f 22/22/22 18/18/18 21/21/21
f 25/25/25 24/24/24 23/23/23
f 28/28/28 27/27/27 26/26/26
f 31/31/31 30/30/30 29/29/29
f 34/34/34 33/33/33 32/32/32
f 37/37/37 36/36/36 35/35/35
f 40/40/40 39/39/39 38/38/38
f 43/43/43 42/42/42 41/41/41
f 46/46/46 45/45/45 44/44/44
f 47/47/47 44/44/44 45/45/45
f 50/50/50 49/49/49 48/48/48
f 53/53/53 52/52/52 51/51/51
f 56/56/56 55/55/55 54/54/54
f 59/59/59 58/58/58 57/57/57
f 60/60/60 57/57/57 58/58/58
f 63/63/63 62/62/62 61/61/61
f 66/66/66 65/65/65 64/64/64
f 69/69/69 68/68/68 67/67/67
f 71/71/71 67/67/67 70/70/70
f 74/74/74 73/73/73 72/72/72
f 77/77/77 76/76/76 75/75/75
f 80/80/80 79/79/79 78/78/78
f 83/83/83 82/82/82 81/81/81
f 86/86/86 85/85/85 84/84/84
f 89/89/89 88/88/88 87/87/87
f 92/92/92 91/91/91 90/90/90
f 95/95/95 94/94/94 93/93/93
f 98/98/98 97/97/97 96/96/96
f 101/101/101 100/100/100 99/99/99
f 102/102/102 99/99/99 100/100/100
f 105/105/105 104/104/104 103/103/103
f 108/108/108 107/107/107 106/106/106
f 109/109/109 106/106/106 107/107/107
f 112/112/112 111/111/111 110/110/110
f 113/113/113 110/110/110 111/111/111
