g Object003
v -0.02542132 0.00199999 -0.02542132
v -0.02542173 0.1531129 0.02542173
v -0.02542132 0.00200006 0.02542133
v -0.02542173 0.1531128 -0.02542091
v -0.02542132 0.00200006 0.02542133
v 0.02542091 0.1531128 0.02542173
v 0.02542132 0.001999993 0.02542133
v -0.02542173 0.1531129 0.02542173
v 0.02542132 0.001999993 0.02542133
v 0.02542091 0.1531131 -0.02542091
v 0.02542132 0.002000265 -0.02542132
v 0.02542091 0.1531128 0.02542173
v 0.02542132 0.002000265 -0.02542132
v -0.02542173 0.1531128 -0.02542091
v -0.02542132 0.00199999 -0.02542132
v 0.02542091 0.1531131 -0.02542091
vt 0.0004994869 0.000489418
vt 0.9995002 0.979409
vt 0.9994919 0.0004898269
vt 0.0005078316 0.9794085
vt 0.00545311 0.0004898269
vt 0.9945467 0.9794085
vt 0.9945546 0.0004893888
vt 0.005445093 0.979409
vt 0.0005078912 0.0004893888
vt 0.9994919 0.9794104
vt 0.9995003 0.0004911994
vt 0.0004995763 0.9794085
vt 0.005445123 0.0004911994
vt 0.9945546 0.9794085
vt 0.9945467 0.000489418
vt 0.00545311 0.9794104
vn -1 -2.725093E-06 0
vn -1 -2.725093E-06 0
vn -1 -2.725094E-06 0
vn -1 -2.725094E-06 0
vn 0 -2.672085E-06 1
vn 0 -2.672085E-06 1
vn 0 -2.672085E-06 1
vn 0 -2.672085E-06 1
vn 1 2.725094E-06 0
vn 1 2.725093E-06 0
vn 1 2.725093E-06 0
vn 1 2.725094E-06 0
vn 0 2.692123E-06 -1
vn 0 2.692123E-06 -1
vn 0 2.692123E-06 -1
vn 0 2.692123E-06 -1
g Object003_0
f 3/3/3 2/2/2 1/1/1
f 4/4/4 1/1/1 2/2/2
f 7/7/7 6/6/6 5/5/5
f 8/8/8 5/5/5 6/6/6
f 11/11/11 10/10/10 9/9/9
f 12/12/12 9/9/9 10/10/10
f 15/15/15 14/14/14 13/13/13
f 16/16/16 13/13/13 14/14/14
