g tail_end
v -2.27589 0 3.865138E-07
v -2.102648 1.937866E-07 0.8709459
v 0 0 3.910556E-07
v -1.609298 1.937866E-07 1.609298
v -0.8709457 1.937866E-07 2.102649
v 0 1.937866E-07 2.275891
v 0.8709455 1.937866E-07 2.102649
v 1.609297 1.937866E-07 1.609298
v 2.102648 1.937866E-07 0.8709459
v 2.27589 0 7.430983E-07
v -2.87677 1.848535 3.05517E-07
v -2.657789 1.848536 1.100893
v -2.27589 0 3.865138E-07
v -2.102648 1.937866E-07 0.8709459
v -2.81002 2.388542 2.820507E-07
v -2.59612 2.388542 1.075348
v -2.87677 1.848535 3.05517E-07
v -2.657789 1.848536 1.100893
v -2.29571 3.859289 2.177075E-07
v -2.12096 3.85929 0.8785306
v -2.81002 2.388542 2.820507E-07
v -2.59612 2.388542 1.075348
v -2.057631 4.125198 2.063528E-07
v -1.901003 4.125198 0.7874215
v -2.29571 3.859289 2.177075E-07
v -2.12096 3.85929 0.8785306
v -1.83143 4.097496 2.078667E-07
v -1.692021 4.097496 0.7008584
v -2.057631 4.125198 2.063528E-07
v -1.901003 4.125198 0.7874215
v 0 4.659792 1.828864E-07
v -1.692021 4.097496 0.7008584
v -1.83143 4.097496 2.078667E-07
v -2.657789 1.848536 1.100893
v -2.034184 1.848536 2.034184
v -2.102648 1.937866E-07 0.8709459
v -1.609298 1.937866E-07 1.609298
v -2.59612 2.388542 1.075348
v -1.986984 2.388542 1.986984
v -2.657789 1.848536 1.100893
v -2.034184 1.848536 2.034184
v -2.12096 3.85929 0.8785306
v -1.623312 3.85929 1.623312
v -2.59612 2.388542 1.075348
v -1.986984 2.388542 1.986984
v -1.901003 4.125198 0.7874215
v -1.454965 4.125198 1.454965
v -2.12096 3.85929 0.8785306
v -1.623312 3.85929 1.623312
v -1.692021 4.097496 0.7008584
v -1.295017 4.097496 1.295017
v -1.901003 4.125198 0.7874215
v -1.454965 4.125198 1.454965
v 0 4.659792 1.828864E-07
v -1.295017 4.097496 1.295017
v -1.692021 4.097496 0.7008584
v -2.034184 1.848536 2.034184
v -1.100892 1.848536 2.657789
v -1.609298 1.937866E-07 1.609298
v -0.8709457 1.937866E-07 2.102649
v -1.986984 2.388542 1.986984
v -1.075348 2.388542 2.59612
v -2.034184 1.848536 2.034184
v -1.100892 1.848536 2.657789
v -1.623312 3.85929 1.623312
v -0.8785301 3.85929 2.12096
v -1.986984 2.388542 1.986984
v -1.075348 2.388542 2.59612
v -1.454965 4.125198 1.454965
v -0.787421 4.125198 1.901003
v -1.623312 3.85929 1.623312
v -0.8785301 3.85929 2.12096
v -1.295017 4.097496 1.295017
v -0.7008579 4.097496 1.692021
v -1.454965 4.125198 1.454965
v -0.787421 4.125198 1.901003
v 0 4.659792 1.828864E-07
v -0.7008579 4.097496 1.692021
v -1.295017 4.097496 1.295017
v -1.100892 1.848536 2.657789
v 1.937866E-07 1.848536 2.87677
v -0.8709457 1.937866E-07 2.102649
v 0 1.937866E-07 2.275891
v -1.075348 2.388542 2.59612
v 1.937866E-07 2.388542 2.81002
v -1.100892 1.848536 2.657789
v 1.937866E-07 1.848536 2.87677
v -0.8785301 3.85929 2.12096
v 3.875732E-07 3.85929 2.29571
v -1.075348 2.388542 2.59612
v 1.937866E-07 2.388542 2.81002
v -0.787421 4.125198 1.901003
v 3.875732E-07 4.125198 2.057631
v -0.8785301 3.85929 2.12096
v 3.875732E-07 3.85929 2.29571
v -0.7008579 4.097496 1.692021
v 3.875732E-07 4.097496 1.83143
v -0.787421 4.125198 1.901003
v 3.875732E-07 4.125198 2.057631
v 0 4.659792 1.828864E-07
v 3.875732E-07 4.097496 1.83143
v -0.7008579 4.097496 1.692021
v 1.937866E-07 1.848536 2.87677
v 1.100892 1.848536 2.657789
v 0 1.937866E-07 2.275891
v 0.8709455 1.937866E-07 2.102649
v 1.937866E-07 2.388542 2.81002
v 1.075348 2.388542 2.59612
v 1.937866E-07 1.848536 2.87677
v 1.100892 1.848536 2.657789
v 3.875732E-07 3.85929 2.29571
v 0.8785307 3.85929 2.12096
v 1.937866E-07 2.388542 2.81002
v 1.075348 2.388542 2.59612
v 3.875732E-07 4.125198 2.057631
v 0.7874215 4.125198 1.901003
v 3.875732E-07 3.85929 2.29571
v 0.8785307 3.85929 2.12096
v 3.875732E-07 4.097496 1.83143
v 0.7008584 4.097496 1.692021
v 3.875732E-07 4.125198 2.057631
v 0.7874215 4.125198 1.901003
v 0 4.659792 1.828864E-07
v 0.7008584 4.097496 1.692021
v 3.875732E-07 4.097496 1.83143
v 1.100892 1.848536 2.657789
v 2.034183 1.848536 2.034184
v 0.8709455 1.937866E-07 2.102649
v 1.609297 1.937866E-07 1.609298
v 1.075348 2.388542 2.59612
v 1.986984 2.388542 1.986984
v 1.100892 1.848536 2.657789
v 2.034183 1.848536 2.034184
v 0.8785307 3.85929 2.12096
v 1.623312 3.85929 1.623312
v 1.075348 2.388542 2.59612
v 1.986984 2.388542 1.986984
v 0.7874215 4.125198 1.901003
v 1.454965 4.125198 1.454965
v 0.8785307 3.85929 2.12096
v 1.623312 3.85929 1.623312
v 0.7008584 4.097496 1.692021
v 1.295017 4.097496 1.295017
v 0.7874215 4.125198 1.901003
v 1.454965 4.125198 1.454965
v 0 4.659792 1.828864E-07
v 1.295017 4.097496 1.295017
v 0.7008584 4.097496 1.692021
v 2.034183 1.848536 2.034184
v 2.657789 1.848536 1.100892
v 1.609297 1.937866E-07 1.609298
v 2.102648 1.937866E-07 0.8709459
v 1.986984 2.388542 1.986984
v 2.59612 2.388542 1.075348
v 2.034183 1.848536 2.034184
v 2.657789 1.848536 1.100892
v 1.623312 3.85929 1.623312
v 2.12096 3.85929 0.8785298
v 1.986984 2.388542 1.986984
v 2.59612 2.388542 1.075348
v 1.454965 4.125198 1.454965
v 1.901003 4.125198 0.7874206
v 1.623312 3.85929 1.623312
v 2.12096 3.85929 0.8785298
v 1.295017 4.097496 1.295017
v 1.692021 4.097496 0.7008576
v 1.454965 4.125198 1.454965
v 1.901003 4.125198 0.7874206
v 0 4.659792 1.828864E-07
v 1.692021 4.097496 0.7008576
v 1.295017 4.097496 1.295017
v 2.657789 1.848536 1.100892
v 2.87677 1.848535 1.692351E-07
v 2.102648 1.937866E-07 0.8709459
v 2.27589 0 7.430983E-07
v 2.59612 2.388542 1.075348
v 2.81002 2.388542 2.258047E-08
v 2.657789 1.848536 1.100892
v 2.87677 1.848535 1.692351E-07
v 2.12096 3.85929 0.8785298
v 2.29571 3.859289 -3.473443E-07
v 2.59612 2.388542 1.075348
v 2.81002 2.388542 2.258047E-08
v 1.901003 4.125198 0.7874206
v 2.057631 4.125198 -4.0182E-07
v 2.12096 3.85929 0.8785298
v 2.29571 3.859289 -3.473443E-07
v 1.692021 4.097496 0.7008576
v 1.83143 4.097496 -3.745324E-07
v 1.901003 4.125198 0.7874206
v 2.057631 4.125198 -4.0182E-07
v 0 4.659792 1.828864E-07
v 1.83143 4.097496 -3.745324E-07
v 1.692021 4.097496 0.7008576
vt 0 0
vt 0 0
vt 0 0
vt 0 0
vt 0 0
vt 0 0
vt 0 0
vt 0 0
vt 0 0
vt 0 0
vt 0 0
vt 0 0
vt 0 0
vt 0 0
vt 0 0
vt 0 0
vt 0 0
vt 0 0
vt 0 0
vt 0 0
vt 0 0
vt 0 0
vt 0 0
vt 0 0
vt 0 0
vt 0 0
vt 0 0
vt 0 0
vt 0 0
vt 0 0
vt 0 0
vt 0 0
vt 0 0
vt 0 0
vt 0 0
vt 0 0
vt 0 0
vt 0 0
vt 0 0
vt 0 0
vt 0 0
vt 0 0
vt 0 0
vt 0 0
vt 0 0
vt 0 0
vt 0 0
vt 0 0
vt 0 0
vt 0 0
vt 0 0
vt 0 0
vt 0 0
vt 0 0
vt 0 0
vt 0 0
vt 0 0
vt 0 0
vt 0 0
vt 0 0
vt 0 0
vt 0 0
vt 0 0
vt 0 0
vt 0 0
vt 0 0
vt 0 0
vt 0 0
vt 0 0
vt 0 0
vt 0 0
vt 0 0
vt 0 0
vt 0 0
vt 0 0
vt 0 0
vt 0 0
vt 0 0
vt 0 0
vt 0 0
vt 0 0
vt 0 0
vt 0 0
vt 0 0
vt 0 0
vt 0 0
vt 0 0
vt 0 0
vt 0 0
vt 0 0
vt 0 0
vt 0 0
vt 0 0
vt 0 0
vt 0 0
vt 0 0
vt 0 0
vt 0 0
vt 0 0
vt 0 0
vt 0 0
vt 0 0
vt 0 0
vt 0 0
vt 0 0
vt 0 0
vt 0 0
vt 0 0
vt 0 0
vt 0 0
vt 0 0
vt 0 0
vt 0 0
vt 0 0
vt 0 0
vt 0 0
vt 0 0
vt 0 0
vt 0 0
vt 0 0
vt 0 0
vt 0 0
vt 0 0
vt 0 0
vt 0 0
vt 0 0
vt 0 0
vt 0 0
vt 0 0
vt 0 0
vt 0 0
vt 0 0
vt 0 0
vt 0 0
vt 0 0
vt 0 0
vt 0 0
vt 0 0
vt 0 0
vt 0 0
vt 0 0
vt 0 0
vt 0 0
vt 0 0
vt 0 0
vt 0 0
vt 0 0
vt 0 0
vt 0 0
vt 0 0
vt 0 0
vt 0 0
vt 0 0
vt 0 0
vt 0 0
vt 0 0
vt 0 0
vt 0 0
vt 0 0
vt 0 0
vt 0 0
vt 0 0
vt 0 0
vt 0 0
vt 0 0
vt 0 0
vt 0 0
vt 0 0
vt 0 0
vt 0 0
vt 0 0
vt 0 0
vt 0 0
vt 0 0
vt 0 0
vt 0 0
vt 0 0
vt 0 0
vt 0 0
vt 0 0
vt 0 0
vt 0 0
vt 0 0
vt 0 0
vt 0 0
vt 0 0
vt 0 0
vt 0 0
vt 0 0
vt 0 0
vt 0 0
vt 0 0
vt 0 0
vt 0 0
vn 0 -1 0
vn 0 -1 0
vn 0 -1 0
vn 0 -1 0
vn 0 -1 0
vn 0 -1 0
vn 0 -1 0
vn 0 -1 0
vn 0 -1 0
vn 0 -1 0
vn -0.9344455 -0.3037483 0.1858727
vn -0.9344455 -0.3037483 0.1858727
vn -0.9344455 -0.3037483 0.1858727
vn -0.9344455 -0.3037482 0.1858727
vn -0.9736561 0.1203532 0.1936723
vn -0.9736561 0.1203534 0.1936722
vn -0.9736561 0.1203534 0.1936722
vn -0.9736561 0.1203535 0.1936721
vn -0.9277368 0.3244228 0.1845384
vn -0.9277368 0.3244229 0.1845383
vn -0.9277368 0.3244229 0.1845383
vn -0.9277368 0.3244229 0.1845383
vn -0.7369683 0.6598397 0.1465918
vn -0.7369686 0.6598396 0.146592
vn -0.7369686 0.6598396 0.146592
vn -0.7369687 0.6598394 0.1465921
vn 0.1215238 0.9922941 -0.02417315
vn 0.1215236 0.9922941 -0.02417308
vn 0.1215236 0.9922941 -0.02417308
vn 0.1215235 0.9922942 -0.02417302
vn -0.293005 0.9543329 0.05828188
vn -0.293005 0.9543329 0.05828188
vn -0.293005 0.9543329 0.05828188
vn -0.7921846 -0.3037482 0.529321
vn -0.7921846 -0.3037482 0.5293209
vn -0.7921846 -0.3037482 0.5293209
vn -0.7921847 -0.3037481 0.5293208
vn -0.8254257 0.1203535 0.5515319
vn -0.8254257 0.1203535 0.5515319
vn -0.8254257 0.1203535 0.5515319
vn -0.8254257 0.1203534 0.5515319
vn -0.7864972 0.3244229 0.5255206
vn -0.7864972 0.3244229 0.5255206
vn -0.7864972 0.3244229 0.5255206
vn -0.7864972 0.3244229 0.5255206
vn -0.6247717 0.6598395 0.4174594
vn -0.6247715 0.6598396 0.4174592
vn -0.6247715 0.6598396 0.4174592
vn -0.6247715 0.6598399 0.417459
vn 0.1030228 0.9922941 -0.06883764
vn 0.1030228 0.9922941 -0.06883768
vn 0.1030228 0.9922941 -0.06883768
vn 0.1030229 0.9922941 -0.06883772
vn -0.2483975 0.954333 0.1659739
vn -0.2483975 0.954333 0.1659739
vn -0.2483975 0.954333 0.1659739
vn -0.5293209 -0.3037481 0.7921847
vn -0.5293209 -0.3037481 0.7921846
vn -0.5293209 -0.3037481 0.7921846
vn -0.5293209 -0.3037481 0.7921846
vn -0.5515319 0.1203534 0.8254257
vn -0.5515319 0.1203535 0.8254257
vn -0.5515319 0.1203535 0.8254257
vn -0.5515319 0.1203535 0.8254257
vn -0.5255206 0.3244229 0.7864972
vn -0.5255206 0.3244229 0.7864972
vn -0.5255206 0.3244229 0.7864972
vn -0.5255206 0.3244229 0.7864972
vn -0.4174589 0.6598398 0.6247716
vn -0.4174589 0.65984 0.6247714
vn -0.4174589 0.65984 0.6247714
vn -0.417459 0.6598402 0.6247712
vn 0.06883768 0.9922941 -0.1030229
vn 0.06883768 0.9922941 -0.1030229
vn 0.06883768 0.9922941 -0.1030229
vn 0.06883768 0.9922941 -0.1030229
vn -0.1659739 0.9543329 0.2483975
vn -0.1659739 0.9543329 0.2483975
vn -0.1659739 0.9543329 0.2483975
vn -0.1858728 -0.3037481 0.9344455
vn -0.1858728 -0.3037481 0.9344455
vn -0.1858728 -0.3037481 0.9344455
vn -0.1858728 -0.3037481 0.9344455
vn -0.1936723 0.1203535 0.9736561
vn -0.1936723 0.1203536 0.9736561
vn -0.1936723 0.1203536 0.9736561
vn -0.1936723 0.1203536 0.9736561
vn -0.1845383 0.3244229 0.9277368
vn -0.1845383 0.3244229 0.9277368
vn -0.1845383 0.3244229 0.9277368
vn -0.1845383 0.324423 0.9277367
vn -0.146592 0.6598402 0.7369679
vn -0.146592 0.6598403 0.7369679
vn -0.146592 0.6598403 0.7369679
vn -0.146592 0.6598402 0.7369679
vn 0.02417257 0.9922941 -0.1215238
vn 0.02417257 0.9922941 -0.1215238
vn 0.02417257 0.9922941 -0.1215238
vn 0.02417257 0.9922941 -0.1215237
vn -0.05828228 0.9543329 0.2930048
vn -0.05828228 0.9543329 0.2930048
vn -0.05828228 0.9543329 0.2930048
vn 0.1858728 -0.3037482 0.9344455
vn 0.1858728 -0.3037481 0.9344455
vn 0.1858728 -0.3037481 0.9344455
vn 0.1858727 -0.303748 0.9344455
vn 0.1936723 0.1203536 0.9736561
vn 0.1936723 0.1203536 0.9736561
vn 0.1936723 0.1203536 0.9736561
vn 0.1936723 0.1203535 0.9736561
vn 0.1845386 0.3244228 0.9277367
vn 0.1845385 0.3244229 0.9277367
vn 0.1845385 0.3244229 0.9277367
vn 0.1845384 0.324423 0.9277367
vn 0.1465923 0.6598402 0.7369679
vn 0.1465922 0.6598402 0.7369679
vn 0.1465922 0.6598402 0.7369679
vn 0.1465922 0.6598402 0.7369679
vn -0.02417261 0.9922941 -0.1215237
vn -0.02417261 0.9922941 -0.1215238
vn -0.02417261 0.9922941 -0.1215238
vn -0.02417261 0.9922941 -0.1215238
vn 0.05828236 0.9543329 0.2930048
vn 0.05828236 0.9543329 0.2930048
vn 0.05828236 0.9543329 0.2930048
vn 0.529321 -0.3037481 0.7921845
vn 0.529321 -0.303748 0.7921846
vn 0.529321 -0.303748 0.7921846
vn 0.5293209 -0.303748 0.7921847
vn 0.551532 0.1203535 0.8254257
vn 0.551532 0.1203535 0.8254256
vn 0.551532 0.1203535 0.8254256
vn 0.551532 0.1203534 0.8254256
vn 0.5255208 0.3244228 0.7864972
vn 0.5255208 0.3244229 0.7864972
vn 0.5255208 0.3244229 0.7864972
vn 0.5255208 0.3244229 0.7864972
vn 0.4174587 0.6598403 0.6247712
vn 0.417459 0.6598399 0.6247712
vn 0.417459 0.6598399 0.6247712
vn 0.4174593 0.6598397 0.6247714
vn -0.06883769 0.9922941 -0.1030229
vn -0.06883768 0.9922941 -0.1030229
vn -0.06883768 0.9922941 -0.1030229
vn -0.06883767 0.9922941 -0.1030229
vn 0.1659739 0.9543329 0.2483975
vn 0.1659739 0.9543329 0.2483975
vn 0.1659739 0.9543329 0.2483975
vn 0.7921846 -0.3037482 0.529321
vn 0.7921845 -0.3037482 0.529321
vn 0.7921845 -0.3037482 0.529321
vn 0.7921846 -0.3037483 0.529321
vn 0.8254257 0.1203534 0.5515319
vn 0.8254257 0.1203535 0.5515319
vn 0.8254257 0.1203535 0.5515319
vn 0.8254257 0.1203536 0.5515319
vn 0.7864974 0.3244228 0.5255205
vn 0.7864973 0.3244228 0.5255206
vn 0.7864973 0.3244228 0.5255206
vn 0.7864972 0.3244228 0.5255207
vn 0.6247718 0.6598396 0.4174589
vn 0.6247717 0.6598396 0.4174589
vn 0.6247717 0.6598396 0.4174589
vn 0.6247715 0.6598397 0.4174589
vn -0.1030229 0.9922941 -0.0688376
vn -0.1030228 0.9922941 -0.06883757
vn -0.1030228 0.9922941 -0.06883757
vn -0.1030228 0.9922942 -0.06883756
vn 0.2483976 0.954333 0.1659737
vn 0.2483976 0.954333 0.1659737
vn 0.2483976 0.954333 0.1659737
vn 0.9344454 -0.3037483 0.1858726
vn 0.9344454 -0.3037483 0.1858727
vn 0.9344454 -0.3037483 0.1858727
vn 0.9344454 -0.3037482 0.1858728
vn 0.9736561 0.1203536 0.1936723
vn 0.9736561 0.1203533 0.1936722
vn 0.9736561 0.1203533 0.1936722
vn 0.9736561 0.1203529 0.193672
vn 0.9277368 0.3244228 0.1845382
vn 0.9277368 0.3244228 0.1845383
vn 0.9277368 0.3244228 0.1845383
vn 0.9277368 0.3244229 0.1845383
vn 0.7369686 0.6598397 0.1465917
vn 0.7369683 0.6598398 0.1465918
vn 0.7369683 0.6598398 0.1465918
vn 0.7369681 0.65984 0.1465918
vn -0.1215234 0.9922942 -0.02417305
vn -0.1215235 0.9922942 -0.02417304
vn -0.1215235 0.9922942 -0.02417304
vn -0.1215236 0.9922941 -0.02417302
vn 0.293005 0.9543329 0.05828184
vn 0.293005 0.9543329 0.05828184
vn 0.293005 0.9543329 0.05828184
g tail_end_0
f 3/3/3 2/2/2 1/1/1
f 3/3/3 4/4/4 2/2/2
f 3/3/3 5/5/5 4/4/4
f 3/3/3 6/6/6 5/5/5
f 3/3/3 7/7/7 6/6/6
f 3/3/3 8/8/8 7/7/7
f 3/3/3 9/9/9 8/8/8
f 3/3/3 10/10/10 9/9/9
f 13/13/13 12/12/12 11/11/11
f 13/13/13 14/14/14 12/12/12
f 17/17/17 16/16/16 15/15/15
f 17/17/17 18/18/18 16/16/16
f 21/21/21 20/20/20 19/19/19
f 21/21/21 22/22/22 20/20/20
f 25/25/25 24/24/24 23/23/23
f 25/25/25 26/26/26 24/24/24
f 29/29/29 28/28/28 27/27/27
f 29/29/29 30/30/30 28/28/28
f 33/33/33 32/32/32 31/31/31
f 36/36/36 35/35/35 34/34/34
f 36/36/36 37/37/37 35/35/35
f 40/40/40 39/39/39 38/38/38
f 40/40/40 41/41/41 39/39/39
f 44/44/44 43/43/43 42/42/42
f 44/44/44 45/45/45 43/43/43
f 48/48/48 47/47/47 46/46/46
f 48/48/48 49/49/49 47/47/47
f 52/52/52 51/51/51 50/50/50
f 52/52/52 53/53/53 51/51/51
f 56/56/56 55/55/55 54/54/54
f 59/59/59 58/58/58 57/57/57
f 59/59/59 60/60/60 58/58/58
f 63/63/63 62/62/62 61/61/61
f 63/63/63 64/64/64 62/62/62
f 67/67/67 66/66/66 65/65/65
f 67/67/67 68/68/68 66/66/66
f 71/71/71 70/70/70 69/69/69
f 71/71/71 72/72/72 70/70/70
f 75/75/75 74/74/74 73/73/73
f 75/75/75 76/76/76 74/74/74
f 79/79/79 78/78/78 77/77/77
f 82/82/82 81/81/81 80/80/80
f 82/82/82 83/83/83 81/81/81
f 86/86/86 85/85/85 84/84/84
f 86/86/86 87/87/87 85/85/85
f 90/90/90 89/89/89 88/88/88
f 90/90/90 91/91/91 89/89/89
f 94/94/94 93/93/93 92/92/92
f 94/94/94 95/95/95 93/93/93
f 98/98/98 97/97/97 96/96/96
f 98/98/98 99/99/99 97/97/97
f 102/102/102 101/101/101 100/100/100
f 105/105/105 104/104/104 103/103/103
f 105/105/105 106/106/106 104/104/104
f 109/109/109 108/108/108 107/107/107
f 109/109/109 110/110/110 108/108/108
f 113/113/113 112/112/112 111/111/111
f 113/113/113 114/114/114 112/112/112
f 117/117/117 116/116/116 115/115/115
f 117/117/117 118/118/118 116/116/116
f 121/121/121 120/120/120 119/119/119
f 121/121/121 122/122/122 120/120/120
f 125/125/125 124/124/124 123/123/123
f 128/128/128 127/127/127 126/126/126
f 128/128/128 129/129/129 127/127/127
f 132/132/132 131/131/131 130/130/130
f 132/132/132 133/133/133 131/131/131
f 136/136/136 135/135/135 134/134/134
f 136/136/136 137/137/137 135/135/135
f 140/140/140 139/139/139 138/138/138
f 140/140/140 141/141/141 139/139/139
f 144/144/144 143/143/143 142/142/142
f 144/144/144 145/145/145 143/143/143
f 148/148/148 147/147/147 146/146/146
f 151/151/151 150/150/150 149/149/149
f 151/151/151 152/152/152 150/150/150
f 155/155/155 154/154/154 153/153/153
f 155/155/155 156/156/156 154/154/154
f 159/159/159 158/158/158 157/157/157
f 159/159/159 160/160/160 158/158/158
f 163/163/163 162/162/162 161/161/161
f 163/163/163 164/164/164 162/162/162
f 167/167/167 166/166/166 165/165/165
f 167/167/167 168/168/168 166/166/166
f 171/171/171 170/170/170 169/169/169
f 174/174/174 173/173/173 172/172/172
f 174/174/174 175/175/175 173/173/173
f 178/178/178 177/177/177 176/176/176
f 178/178/178 179/179/179 177/177/177
f 182/182/182 181/181/181 180/180/180
f 182/182/182 183/183/183 181/181/181
f 186/186/186 185/185/185 184/184/184
f 186/186/186 187/187/187 185/185/185
f 190/190/190 189/189/189 188/188/188
f 190/190/190 191/191/191 189/189/189
f 194/194/194 193/193/193 192/192/192
